<svg height="1065pt" viewBox="-85 -33 1065 1065.0013" width="1065pt" xmlns="http://www.w3.org/2000/svg"><path d="m821.394531 383.5625-185.738281-26.730469 17.59375 100.761719c52.589844 1.46875 105.320312 2.953125 158.335938 4.421875 8.074218-27.199219 9.808593-50.492187 9.808593-78.453125zm-400.78125 469.167969c50.378907 18.621093 65.09375 83.601562 26.707031 121.972656-28.953124 28.953125-75.882812 28.953125-104.835937 0-38.386719-38.371094-23.667969-103.351563 26.710937-121.972656h-35.753906c-69.082031 0-115.6875-71.203125-85.988281-134.074219 7.980469-16.894531 20.136719-30.585938 35.433594-39.910156l-146.925781-401.378906-42.214844-30.5625c-30.976563 15.324218-68.234375 5.1875-87.421875-23.398438-21.171875-31.53125-12.714844-74.207031 18.796875-95.363281 31.535156-21.167969 74.214844-12.714844 95.367187 18.796875 10.328125 15.390625 14.4375 35.183594 9.804688 54.390625l41.292969 29.90625 45.015624 6.472656v-79.921875c0-16.128906 13.085938-29.207031 29.21875-29.207031h87.644532v-101.285157c0-16.136718 13.085937-29.214843 29.222656-29.214843h336.945312c16.128907 0 29.210938 13.078125 29.210938 29.214843v111.015626h70.121094c16.128906 0 29.210937 13.078124 29.210937 29.222656v158.171875l24.863281 3.585937c15.003907 1.230469 26.789063 13.796875 26.789063 29.109375v35.742188c0 148.664062-108.984375 272.632812-256.703125 291.613281l-295.71875 38.007812c-25.425781 3.246094-38.996094 31.65625-25.261719 53.539063 7.023438 11.203125 17.976563 17.089844 31.296875 17.089844h526.476563c16.136719 0 29.214843 13.078125 29.214843 29.214843 0 16.128907-13.078124 29.222657-29.214843 29.222657h-68.535157c50.382813 18.621093 65.101563 83.601562 26.71875 121.972656-28.953124 28.953125-75.890624 28.953125-104.84375 0-38.386718-38.371094-23.667968-103.351563 26.71875-121.972656zm-14.597656 58.445312c-9.863281-9.855469-26.824219-2.863281-26.824219 11.109375 0 13.976563 16.960938 20.96875 26.824219 11.109375 6.128906-6.132812 6.128906-16.089843 0-22.21875zm370.769531 0c-9.851562-9.855469-26.816406-2.863281-26.816406 11.109375 0 13.976563 16.964844 20.96875 26.816406 11.109375 6.136719-6.132812 6.136719-16.089843 0-22.21875zm-201.921875-563.085937-164.910156-23.734375 36.914063 127.421875 146.816406 4.132812zm95.554688-45.179688v-246.492187h-278.519531v72.0625h121.726562c16.136719 0 29.214844 13.078125 29.214844 29.207031v126.863281c42.53125 6.121094 85.046875 12.246094 127.578125 18.359375zm-6.953125 213.210938 16.453125 94.253906c43.882812-18.957031 80.6875-50.769531 105.734375-90.839844-40.863282-1.132812-81.566406-2.277344-122.1875-3.414062zm-39.953125 110.671875-19.613281-112.34375-140.015626-3.9375 38.25 132.003906c40.023438-5.144531 81.703126-9.324219 121.378907-15.722656zm-276.816407-311.53125-142.230468-20.472657 55.554687 151.765626c42.078125 1.171874 83.96875 2.347656 125.738281 3.519531zm96.996094 334.757812-40.925781-141.222656c-40.285156-1.132813-80.65625-2.261719-121.207031-3.398437l57.851562 158.019531zm326.058594-332.820312v-120.550781h-40.90625v114.667968zm-285.332031-41.050781v-89.246094h-209.378907v59.113281zm-412.316407-96.890626c-4.925781-7.328124-17.058593-5.648437-18.917968 3.808594-2.671875 13.617188 17.804687 17.550782 20.4375 4.109375.578125-2.917969-.050782-5.726562-1.519532-7.917969zm0 0" fill-rule="evenodd"/></svg>